<svg width="128" height="128" viewBox="0 0 128 128" fill="none" xmlns="http://www.w3.org/2000/svg">
  <rect x="12" y="12" width="104" height="104" rx="28" fill="#0B1220" />
  <rect x="12.8" y="12.8" width="102.4" height="102.4" rx="27.2" stroke="#FFFFFF" stroke-opacity="0.18"
    stroke-width="1.6" />
  <path d="M39 34H51V57.2L71.1 34H85.3L65 57.5L87.4 94H73.5L57.3 65.9L51 73V94H39V34Z" fill="#FFFFFF" />
  <path
    d="M81.2 44.5C76.2 44.5 72.5 47.3 72.5 50.8C72.5 54.3 75.5 55.9 81.2 57.3C88.2 59 94 61.8 94 70.1C94 78.7 86.8 83.7 78.4 83.7C72.2 83.7 66.2 81.7 61.8 77.7L67.8 70.6C71.3 73.3 75 74.9 78.7 74.9C82.8 74.9 84.9 73.2 84.9 70.8C84.9 68.3 82.8 67.2 77.4 65.8C70.5 64.1 62.9 61.8 62.9 51.8C62.9 43.5 69.9 37.7 79.4 37.7C84.9 37.7 89.9 39.4 93.7 42.5L88.2 49.8C85 47.3 82.9 45.8 81.2 44.5Z"
    fill="#DDE7FF" />
</svg>